<?xml version="1.0" encoding="iso-8859-1"?>
<!-- Generator: Adobe Illustrator 23.0.1, SVG Export Plug-In . SVG Version: 6.00 Build 0)  -->
<svg version="1.1" id="Layer_2" xmlns="http://www.w3.org/2000/svg" xmlns:xlink="http://www.w3.org/1999/xlink" x="0px" y="0px"
	 viewBox="0 0 800 800" style="enable-background:new 0 0 800 800;" xml:space="preserve">
<path style="fill:none;" d="M430,191.596c3.216-0.758,6.443-1.132,9.733-1.132c12.291,0,22.737,5.268,32.84,10.362
	c7.994,4.031,15.605,7.869,23.604,8.834c-5.836-6.259-10.726-13.154-15.51-19.899l-4.885-6.876l5.435-3.366
	c5.551-3.438,10.264-7.424,14.739-12.023c-10.564-0.977-19.81-5.639-28.783-10.163c-9.258-4.667-18.001-9.076-27.439-9.076
	c-3.266,0-6.478,0.523-9.733,1.593V191.596z"/>
<polygon style="fill:none;" points="434.036,496.155 436.875,467.102 464.504,425.126 390.829,348.702 422.023,248.618 
	348.705,293.294 317.501,355.01 267.335,375.951 246.69,429.656 177.977,532.596 369.063,532.596 "/>
<path style="fill:#FFFFFF;" d="M548.223,463.273L511.08,361.188l-42.385-46.291L430,234.137v-30.074
	c3.256-1.07,6.468-1.599,9.733-1.599c9.436,0,18.18,4.409,27.436,9.077c10.092,5.089,20.527,10.351,32.794,10.351
	c4.016,0,8.055-0.586,12.006-1.743l11.504-3.366l-9.59-7.192c-8.436-6.327-14.725-14.577-21.056-23.434
	c8.414-6.149,15.076-13.448,22.13-22.213l11.978-14.883l-18.337,5.363c-2.895,0.847-5.719,1.258-8.634,1.258
	c-9.413,0-18.145-4.403-27.391-9.064c-10.102-5.094-20.55-10.361-32.842-10.361c-6.164,0-12.108,1.311-18.171,4.006L418,141.847
	v0.653v66.69v25.724l-78.067,47.566l-30.731,60.783l-50.909,21.247l-22.18,57.698l-83.246,124.714h494.266L548.223,463.273z
	 M430,149.85c3.256-1.069,6.468-1.593,9.733-1.593c9.438,0,18.182,4.409,27.44,9.076c8.974,4.524,18.219,9.186,28.783,10.163
	c-4.476,4.599-9.189,8.586-14.739,12.023l-5.435,3.366l4.885,6.875c4.784,6.745,9.674,13.64,15.51,19.899
	c-7.998-0.965-15.609-4.803-23.604-8.834c-10.102-5.094-20.549-10.362-32.84-10.362c-3.29,0-6.518,0.374-9.733,1.132V149.85z
	 M436.875,467.102l-2.839,29.054l-64.973,36.44H177.977l68.713-102.939l20.645-53.705l50.166-20.941l31.204-61.716l73.318-44.676
	l-31.194,100.083l73.675,76.424L436.875,467.102z"/>
</svg>
