<?xml version="1.0" encoding="UTF-8"?>
<svg xmlns="http://www.w3.org/2000/svg" xmlns:xlink="http://www.w3.org/1999/xlink" width="87pt" height="87pt" viewBox="0 0 87 87" version="1.1">
<g id="surface1">
<path style=" stroke:none;fill-rule:nonzero;fill:rgb(100%,100%,100%);fill-opacity:1;" d="M 59.621094 50.382812 L 55.578125 39.277344 L 50.96875 34.246094 L 46.761719 25.460938 L 46.761719 22.191406 C 47.117188 22.074219 47.464844 22.019531 47.820312 22.019531 C 48.847656 22.019531 49.796875 22.496094 50.804688 23.003906 C 51.902344 23.558594 53.035156 24.128906 54.371094 24.128906 C 54.808594 24.128906 55.246094 24.066406 55.675781 23.941406 L 56.925781 23.574219 L 55.886719 22.792969 C 54.96875 22.105469 54.285156 21.207031 53.59375 20.246094 C 54.511719 19.574219 55.234375 18.78125 56 17.828125 L 57.304688 16.210938 L 55.308594 16.792969 C 54.996094 16.886719 54.6875 16.929688 54.371094 16.929688 C 53.347656 16.929688 52.398438 16.453125 51.390625 15.945312 C 50.292969 15.390625 49.15625 14.816406 47.820312 14.816406 C 47.152344 14.816406 46.503906 14.960938 45.84375 15.253906 L 45.457031 15.425781 L 45.457031 25.546875 L 36.96875 30.71875 L 33.625 37.328125 L 28.089844 39.640625 L 25.675781 45.914062 L 16.625 59.476562 L 70.375 59.476562 Z M 46.761719 16.296875 C 47.117188 16.179688 47.464844 16.121094 47.820312 16.121094 C 48.847656 16.121094 49.796875 16.601562 50.804688 17.109375 C 51.78125 17.601562 52.785156 18.109375 53.933594 18.214844 C 53.449219 18.714844 52.9375 19.148438 52.332031 19.523438 L 51.742188 19.890625 L 52.273438 20.636719 C 52.792969 21.371094 53.324219 22.121094 53.960938 22.800781 C 53.089844 22.695312 52.261719 22.277344 51.390625 21.839844 C 50.292969 21.285156 49.15625 20.710938 47.820312 20.710938 C 47.464844 20.710938 47.113281 20.753906 46.761719 20.835938 Z M 47.511719 50.796875 L 47.203125 53.957031 L 40.136719 57.917969 L 19.355469 57.917969 L 26.828125 46.726562 L 29.074219 40.886719 L 34.527344 38.609375 L 37.921875 31.894531 L 45.894531 27.039062 L 42.503906 37.921875 L 50.515625 46.234375 Z M 47.511719 50.796875 "/>
</g>
</svg>
